<svg id="Lager_1" data-name="Lager 1" xmlns="http://www.w3.org/2000/svg" viewBox="0 0 769.67 193.33"><defs><style>.cls-1{fill:#fff;}</style></defs><title>logo</title><path id="k" class="cls-1" d="M333.27,481.23H296.69V298.48h36.58v91.38l68.05-91.38h41.55l-57.73,77.1,57.73,105.65H401.32l-40.14-73.92-27.91,37.35Z" transform="translate(-296.69 -290.45)"/><path id="v" class="cls-1" d="M461.45,481.23,402,372.35h45.31l34.1,67.91,33.95-67.91h45.46L501.37,481.23Z" transform="translate(-296.69 -290.45)"/><path id="i_dot" data-name="i dot" class="cls-1" d="M577.11,341.66a22.22,22.22,0,0,1-1.85,9,23.18,23.18,0,0,1-5,7.33,24.41,24.41,0,0,1-7.46,5,23.36,23.36,0,0,1-18.22,0,23.34,23.34,0,0,1-12.36-12.3,22.89,22.89,0,0,1,0-18,23.17,23.17,0,0,1,12.36-12.36,23.36,23.36,0,0,1,18.22,0,24.41,24.41,0,0,1,7.46,5,23.11,23.11,0,0,1,5,7.39A22.43,22.43,0,0,1,577.11,341.66Z" transform="translate(-296.69 -290.45)"/><rect id="i" class="cls-1" x="584.07" y="372" width="35.05" height="109.23" transform="translate(-426.36 40.42) rotate(-27.88)"/><path id="t" class="cls-1" d="M686.06,481.23a59.15,59.15,0,0,1-23.7-4.78,61.54,61.54,0,0,1-32.56-32.56,59.15,59.15,0,0,1-4.78-23.7V379.66H608.07V345H625V290.45h34.66V345h52.76v34.66H659.68v40.53a25.89,25.89,0,0,0,2,10.26,26.18,26.18,0,0,0,5.61,8.34,26.87,26.87,0,0,0,8.41,5.67,25.51,25.51,0,0,0,10.32,2.11h26.38v34.66Z" transform="translate(-296.69 -290.45)"/><path id="t-2" data-name="t" class="cls-1" d="M778.38,481.23a59.15,59.15,0,0,1-23.7-4.78,61.6,61.6,0,0,1-32.57-32.56,59.32,59.32,0,0,1-4.78-23.7V379.66h-17V345h17V290.45H752V345h52.76v34.66H752v40.53a25.89,25.89,0,0,0,2,10.26,26.32,26.32,0,0,0,5.6,8.34,26.91,26.91,0,0,0,8.42,5.67,25.44,25.44,0,0,0,10.32,2.11h26.38v34.66Z" transform="translate(-296.69 -290.45)"/><path id="o" class="cls-1" d="M944.16,411.78a73.58,73.58,0,0,1-5.48,28.48,71.13,71.13,0,0,1-14.91,22.81,69.82,69.82,0,0,1-22.11,15.17,69.27,69.27,0,0,1-54.29,0,69.85,69.85,0,0,1-37.15-38,73.4,73.4,0,0,1-5.48-28.48A74.56,74.56,0,0,1,810.22,383a70.46,70.46,0,0,1,15-22.87A69.45,69.45,0,0,1,847.37,345a67.4,67.4,0,0,1,27.08-5.48,71.54,71.54,0,0,1,27.21,5.16,65.77,65.77,0,0,1,22.11,14.65,69.36,69.36,0,0,1,14.91,22.82A77.19,77.19,0,0,1,944.16,411.78Zm-35,0a40.42,40.42,0,0,0-2.74-15.23,36.24,36.24,0,0,0-7.45-11.73,32.26,32.26,0,0,0-11-7.52,35.93,35.93,0,0,0-26.89,0,31.61,31.61,0,0,0-11,7.52,35.77,35.77,0,0,0-7.32,11.73A41.23,41.23,0,0,0,840,411.78a39.3,39.3,0,0,0,2.68,14.65A36.74,36.74,0,0,0,850,438.16,34.34,34.34,0,0,0,861,446a32.17,32.17,0,0,0,13.45,2.87,33.92,33.92,0,0,0,13.44-2.68,33.4,33.4,0,0,0,11-7.51,35.4,35.4,0,0,0,7.45-11.73A40.57,40.57,0,0,0,909.11,411.78Z" transform="translate(-296.69 -290.45)"/><path id="n" class="cls-1" d="M979.19,478.23H944.4V341.74h8.41L964.28,355a61.29,61.29,0,0,1,41.3-15.94,59,59,0,0,1,23.57,4.78A61.18,61.18,0,0,1,1048.52,357a62.38,62.38,0,0,1,13.07,19.5,59.79,59.79,0,0,1,4.77,23.77v78h-34.79v-78a25.5,25.5,0,0,0-2-10.13,26.21,26.21,0,0,0-13.89-14,25.06,25.06,0,0,0-10.06-2,26.33,26.33,0,0,0-10.33,2,26,26,0,0,0-14,14,25.5,25.5,0,0,0-2,10.13Z" transform="translate(-296.69 -290.45)"/><rect id="t_line" data-name="t line" class="cls-1" x="311.31" y="54.55" width="197" height="35"/></svg>